<?xml version="1.0" standalone="no"?><!DOCTYPE svg PUBLIC "-//W3C//DTD SVG 1.1//EN" "http://www.w3.org/Graphics/SVG/1.1/DTD/svg11.dtd"><svg t="1677682974346" class="icon" viewBox="0 0 1805 1024" version="1.1" xmlns="http://www.w3.org/2000/svg" p-id="2933" xmlns:xlink="http://www.w3.org/1999/xlink" width="112.8125" height="64"><path d="M1718.059915 641.467423c2.326531-63.591845-9.693879-275.403098-43.622455-309.622491a12.505104 12.505104 0 0 0-3.489796-3.005102 11.535716 11.535716 0 0 0-4.362245-1.260204c-47.306129-9.693879-230.520439 96.938789-282.285753 134.357161-41.005108 29.081637-93.836747 54.673477-102.852054 85.693889-31.408167 108.571443 54.091844 106.632667-27.433678 222.280642-20.744901 29.566331-5.428572 74.158173 27.627555 91.897971l46.43368 25.010208 7.270409 3.97449a37.321434 37.321434 0 0 0 52.734701 28.306126l7.270409 3.974491 46.530619 24.913268c32.959188 17.739798 78.714296 6.010205 91.897971-27.627554 51.668374-131.933691 96.938789-59.520416 170.224513-145.408183 20.163268-25.107146 11.826532-83.173481 14.056124-133.484712z" fill="#F3D24F" p-id="2934"></path><path d="M1354.151703 917.839909h0.969388l315.729634-589.581712a12.698981 12.698981 0 0 0-4.362245-1.260204c-47.403068-9.693879-230.617378 96.938789-282.382691 134.357161-41.005108 29.081637-93.836747 54.673477-102.755116 85.693889-31.408167 108.571443 53.994905 106.632667-27.530616 222.280642-20.744901 29.566331-5.428572 74.158173 27.627555 91.897972l46.627557 25.204085 7.367348 3.97449a37.030617 37.030617 0 0 0 18.709186 27.433677z" fill="#BFAD65" p-id="2935"></path><path d="M1709.432363 492.957199c27.336738 0 27.336738-42.362251 0-42.362251s-27.336738 42.362251 0 42.362251zM1402.814975 951.089914c41.877557 22.586738 91.704094 41.58674 132.03063 3.005102 25.59184-24.428575 27.530616-64.367356 54.38266-88.408175 18.127553-16.188778 42.653067-19.387758 64.367356-28.01531 116.326546-48.469394 81.331644-180.790841 83.755113-282.382691 0.678572-27.2398-41.683679-27.2398-42.36225 0-1.066327 45.561231 1.647959 91.2194 0 136.780631-1.454082 55.255109-10.275512 88.602053-66.596948 109.831647-31.698984 11.923471-58.163273 18.515309-80.653072 46.142863-15.801023 19.387758-27.918371 66.596948-48.469394 79.683685-26.658167 17.255104-52.83164-0.872449-75.806133-13.280614s-45.464292 23.750003-21.326534 36.642862zM1783.687475 631.482728c27.2398 0 27.336738-42.362251 0-42.362251s-27.336738 42.362251 0 42.362251zM1804.820131 762.834786c1.163265-29.081637 0.969388-59.2296 0.872449-88.892869 0-27.2398-42.459189-27.336738-42.36225 0 0 29.663269 0 59.326539-0.87245 88.892869-1.163265 27.336738 41.295924 27.2398 42.362251 0zM1266.519038 665.992937c9.693879 61.750008-58.841845 96.938789-40.132658 159.561245 11.535716 38.193883 43.913271 54.285722 76.484704 71.831643 24.04082 12.892859 45.464292-23.653064 21.326533-36.642862-9.693879-5.525511-21.035717-10.37245-30.826534-16.576533-33.63776-21.520411-30.051024-46.530619-13.280614-76.581643 21.520411-38.775515 34.704086-67.857152 27.336738-112.83675-4.459184-26.852044-45.367353-15.413267-40.908169 11.2449zM1272.432304 518.839856a123.887772 123.887772 0 0 0-19.96939 83.464296 21.908166 21.908166 0 0 0 21.229595 21.229595 21.423472 21.423472 0 0 0 21.229594-21.229595 88.79593 88.79593 0 0 1 13.765308-62.137763 21.326533 21.326533 0 0 0-7.561225-29.081637 21.61735 21.61735 0 0 0-29.081637 7.658165zM1346.299661 505.559241c27.336738 0 27.336738-42.459189 0-42.459189s-27.2398 42.459189 0 42.459189zM1371.600685 776.793972c27.336738 0 27.336738-42.459189 0-42.45919s-27.2398 42.459189 0 42.45919z" fill="#49494A" p-id="2936"></path><path d="M1556.656832 716.304168c27.2398 0 27.336738-42.459189 0-42.45919s-27.336738 42.459189 0 42.45919zM1723.391549 416.86025c-9.693879-55.836742-19.387758-123.2092-89.66838-107.795933-82.301031 18.224492-163.826553 72.219397-234.107174 116.326546-23.071432 14.443879-1.744898 51.18368 21.423472 36.545924a1372.653246 1372.653246 0 0 1 162.178593-89.280625c14.153063-6.494899 59.326539-32.377555 76.387766-25.204085s20.84184 68.632662 22.877554 80.459195c4.653062 26.852044 45.561231 15.510206 40.908169-11.2449z" fill="#49494A" p-id="2937"></path><path d="M1588.065 437.411273l-297.795959 553.811299c-12.892859 24.04082 23.653064 45.464292 36.642862 21.423472l297.795959-553.811299c12.892859-24.04082-23.750003-45.464292-36.642862-21.423472zM1556.656832 716.304168c27.2398 0 27.336738-42.459189 0-42.45919s-27.336738 42.459189 0 42.45919z" fill="#49494A" p-id="2938"></path><path d="M100.345412 641.467423c-2.326531-63.591845 9.693879-275.403098 43.622455-309.622491a12.505104 12.505104 0 0 1 3.489796-3.005102 11.535716 11.535716 0 0 1 4.362246-1.260204c47.306129-9.693879 230.617378 96.938789 282.285752 134.357161 41.005108 29.081637 93.836747 54.673477 102.852055 85.693889 31.408167 108.571443-54.091844 106.632667 27.433677 222.280642 20.744901 29.566331 5.428572 74.158173-27.627555 91.897971l-46.43368 25.010208-7.270409 3.97449a37.224495 37.224495 0 0 1-52.734701 28.306126l-7.270409 3.974491-46.530618 24.913268c-32.959188 17.739798-78.714296 6.010205-91.897972-27.627554-51.668374-131.933691-96.938789-59.520416-170.224513-145.408183-20.163268-25.107146-12.214287-83.173481-14.056124-133.484712z" fill="#BFAD65" p-id="2939"></path><path d="M464.253624 917.839909h-0.969388L147.554602 328.742891a12.698981 12.698981 0 0 1 4.362245-1.260204c47.403068-9.693879 230.617378 96.938789 282.382691 134.357161 41.005108 29.081637 93.836747 54.673477 102.852055 85.693889 31.311229 108.571443-54.091844 106.632667 27.433677 222.280642 20.744901 29.566331 5.428572 74.158173-27.627554 91.897972l-46.43368 25.010207-7.367348 3.97449a37.030617 37.030617 0 0 1-18.903064 27.142861z" fill="#F3D24F" p-id="2940"></path><path d="M126.034191 739.472538c-6.688776-61.265314-1.066327-122.821445-2.617347-184.183698-0.678572-27.2398-43.137761-27.336738-42.362251 0 1.551021 61.362253-4.071429 122.918384 2.617347 184.183698 2.908164 26.755106 45.367353 27.045922 42.362251 0zM42.376016 672.487835c0-38.775515 1.841837-78.132664 0.775511-117.198995-0.77551-27.2398-43.137761-27.336738-42.362251 0 0.969388 38.775515-0.969388 78.132664-0.77551 117.198995 0 27.2398 42.556128 27.336738 42.36225 0zM24.636218 760.605194c27.2398 0 27.2398-42.362251 0-42.36225s-27.336738 42.362251 0 42.36225zM141.350519 821.191937c27.336738 0 27.336738-42.362251 0-42.362251s-27.2398 42.362251 0 42.362251zM441.860764 776.793972c27.2398 0 27.336738-42.459189 0-42.45919s-27.336738 42.459189 0 42.45919zM182.549505 547.630676c27.2398 0 27.336738-42.362251 0-42.362251s-27.336738 42.362251 0 42.362251zM394.263819 914.447052c-23.362248 12.602043-49.244905 30.244902-75.612255 13.086736-15.897961-10.469389-20.744901-34.025515-29.081637-50.311231a158.107164 158.107164 0 0 0-37.515311-47.500007c-20.744901-17.64286-50.892864 12.214287-30.051024 29.954086 40.423475 34.316331 39.841842 96.938789 96.163278 113.709199 36.448984 10.469389 66.209193-5.62245 96.938788-22.295921 24.04082-12.892859 2.714286-49.535721-21.326533-36.642862zM510.97812 654.748037c-7.270409 44.01021 5.719389 75.030622 27.336739 112.83675 17.448982 30.535718 19.387758 55.739803-13.280614 76.581643-9.693879 6.204082-20.647962 11.147961-30.826535 16.576533-24.04082 12.892859-2.714286 49.535721 21.326533 36.642862 32.668372-17.545921 64.85205-33.346943 76.484704-71.831643 18.709186-62.040825-50.311231-98.005115-40.132658-159.561245 4.459184-26.658167-36.448984-38.096944-40.908169-11.2449zM509.4271 540.166389A88.79593 88.79593 0 0 1 523.483224 602.304152a21.326533 21.326533 0 0 0 21.229595 21.229595 21.714289 21.714289 0 0 0 21.229594-21.229595 123.887772 123.887772 0 0 0-19.96939-83.464296 21.908166 21.908166 0 0 0-29.081637-7.658165 21.229595 21.229595 0 0 0-7.561225 29.081637zM472.105666 505.559241c27.2398 0 27.336738-42.459189 0-42.459189s-27.336738 42.459189 0 42.459189z" fill="#49494A" p-id="2941"></path><path d="M127.294395 500.518424a475.000064 475.000064 0 0 1 15.025512-99.653074 200.372476 200.372476 0 0 1 11.729594-41.392863c8.239797-16.382655 0-9.693879 12.602042-10.663267 35.091841-3.586735 85.306134 31.21429 115.163281 46.724496 39.551026 20.357146 77.551031 42.750006 115.551036 66.403071 23.16837 14.637757 44.494904-22.005105 21.423472-36.545924a1380.989982 1380.989982 0 0 0-162.178593-89.377563c-30.147963-13.668369-77.551031-40.326536-112.158178-28.209187-24.525514 8.627552-30.729596 37.030617-37.224495 59.423477a540.91844 540.91844 0 0 0-22.295921 133.290834c-0.77551 27.336738 41.683679 27.336738 42.36225 0z" fill="#49494A" p-id="2942"></path><path d="M193.891343 458.834745l297.602081 553.811299c12.989798 24.04082 49.535721 2.617347 36.642862-21.423472L230.340327 437.411273c-12.892859-24.04082-49.535721-2.617347-36.642862 21.423472z" fill="#49494A" p-id="2943"></path><path d="M1153.58535 345.901057c-36.255107-73.382663-178.658187-306.132694-238.081665-324.163309a17.739798 17.739798 0 0 0-5.719389-1.163266h-1.066326a17.739798 17.739798 0 0 0-5.719389 1.163266C843.381226 39.768362 701.075085 272.518394 665.013855 345.901057c-28.596943 58.163273-72.994908 119.428587-63.9796 159.658184 30.535718 142.015325 126.020425 87.24491 104.306136 268.520445-5.62245 46.045925 38.775515 87.24491 87.24491 87.244909h78.520419a47.887762 47.887762 0 0 0 76.969398 0h78.42348c48.469394 0 92.867359-41.198985 87.244909-87.244909-21.714289-180.984718 73.770418-126.020425 104.306137-268.520445 8.433675-40.229597-35.964291-101.494912-64.464294-159.658184z" fill="#93C8A5" p-id="2944"></path><path d="M758.753664 786.390912c14.540818-120.397975-16.867349-162.663287-59.423478-205.316354a137.943896 137.943896 0 0 1-45.658169-81.040827c-0.872449-12.79592 21.61735-53.413272 34.994903-77.551031 8.433675-15.122451 17.061227-30.826535 24.913268-46.724496C751.095499 299.467377 878.473068 100.839799 935.08532 38.798975a68.438785 68.438785 0 0 0-19.387758-11.051022 17.739798 17.739798 0 0 0-5.719388-1.163266h-1.066327a17.739798 17.739798 0 0 0-5.719388 1.163266C843.381226 45.58469 701.075085 278.334721 665.013855 351.717384c-28.596943 58.163273-72.994908 119.137771-64.270417 159.658185 30.535718 142.112264 126.020425 87.24491 104.306137 268.520444-4.362245 35.479597 21.132656 67.857152 55.061232 81.137766-0.969388-37.030617-1.647959-72.02552-1.357143-74.642867z" fill="#66C089" p-id="2945"></path><path d="M1040.360845 180.135728c27.336738 0 27.336738-42.459189 0-42.459189s-27.2398 42.459189 0 42.459189zM958.350629 882.166435c48.469394 0 100.137769 6.688776 139.882672-26.658167 62.913274-53.025517 12.214287-127.571446 45.270415-191.841862 20.84184-40.617352 61.846947-64.173478 80.556133-107.989811 35.964291-84.336746-14.443879-146.668387-52.250007-220.82656-12.408165-24.331636-49.051027-2.908164-36.642862 21.326533 19.387758 37.127556 46.045925 74.255112 58.163273 114.387771 9.693879 32.183678-2.908164 66.209193-20.938778 93.448992s-48.469394 47.887762-65.142866 78.326541a149.576551 149.576551 0 0 0-15.704084 51.571436c-4.168368 30.923474 8.239797 69.311234 0 98.586748-15.9949 58.163273-87.24491 47.306129-133.000018 47.306128-27.2398 0-27.336738 42.362251 0 42.362251zM661.717936 644.860281c51.959191 64.173478-8.142858 151.903082 56.418375 209.387783 39.647965 35.18878 93.061237 27.918371 142.015326 27.918371 27.2398 0 27.2398-42.362251 0-42.362251-51.668374 0-134.938794 9.693879-133.969406-66.112253 0.872449-61.362253 6.39796-108.765321-34.41327-159.173491-17.255104-21.229595-47.015312 8.918369-30.051025 29.954085zM633.896504 604.436806c27.2398 0 27.336738-42.459189 0-42.45919s-27.336738 42.459189 0 42.45919zM638.743444 350.844935c-24.331636 45.464292-65.918376 100.234707-59.132661 155.102062 3.295919 26.755106 45.755108 27.045922 42.36225 0-5.719389-45.852047 32.765311-94.806135 53.413273-133.387773 12.892859-24.04082-23.750003-45.464292-36.642862-21.326534zM1017.871046 91.921431c-23.362248-29.954086-56.321436-80.943888-96.938789-90.637768-27.627555-6.591838-50.795925 13.474492-69.311234 31.21429C775.524074 105.783677 717.845495 207.18165 666.177121 298.594928c-13.474492 23.750003 23.16837 45.173475 36.642862 21.423472A1788.42371 1788.42371 0 0 1 823.993468 130.40613c16.091839-21.714289 50.214292-77.551031 79.780623-85.403073 27.433677-7.17347 68.729601 57.58164 83.755114 76.872459 16.77041 21.520411 46.530619-8.627552 29.954085-29.954085zM712.319984 88.916328c-36.545923 52.443885-70.571438 106.632667-101.882667 162.372471-13.474492 23.846942 23.16837 45.270414 36.545924 21.423472 31.602045-55.642865 65.336743-109.928586 101.979605-162.37247 15.607145-22.39286-21.132656-43.622455-36.642862-21.423473zM785.217953 49.55918c27.2398 0 27.336738-42.459189 0-42.459189s-27.336738 42.459189 0 42.459189z" fill="#49494A" p-id="2946"></path><path d="M888.070008 194.967363v808.566435c0 27.2398 42.362251 27.336738 42.36225 0V194.967363c0-27.336738-42.362251-27.336738-42.36225 0z" fill="#49494A" p-id="2947"></path><path d="M771.8404 355.110242c4.943878-55.158171 58.163273-1.938776 75.515317 9.693879a67.857152 67.857152 0 0 0 72.607152 5.428572c24.622452-11.535716 3.19898-48.469394-21.423472-36.642862-29.081637 13.57143-62.913274-40.03572-93.255115-44.591843-41.877557-6.301021-72.316336 27.045922-75.806132 66.112254-2.42347 27.142861 39.938781 27.045922 42.36225 0zM1077.100645 295.008193c-8.142858-33.928576-44.01021-61.65307-79.780623-52.443885-28.209187 7.270409-44.301026 46.627557-74.933683 34.316331-25.301024-9.693879-36.352046 30.826535-11.2449 40.908169a63.301029 63.301029 0 0 0 65.62756-9.693879c18.030615-13.765308 48.469394-45.658169 59.423478-1.357143 6.39796 26.464289 47.306129 15.21939 40.908168-11.341838zM808.289385 241.59492c20.551023 4.653062 37.709189 17.352043 58.163273 22.39286 22.198983 5.428572 40.423475-2.908164 57.484701-16.576532 21.229595-17.158166-8.918369-47.015312-30.051024-30.051025-11.051022 8.918369-19.387758 5.428572-30.535718 0a220.05105 220.05105 0 0 0-43.622455-16.673472c-26.561228-5.913266-37.903066 34.897964-11.2449 40.908169zM969.401651 766.809277c27.2398 0 27.336738-42.362251 0-42.362251s-27.336738 42.362251 0 42.362251zM992.279205 396.212288c27.336738 0 27.336738-42.362251 0-42.362251s-27.336738 42.362251 0 42.362251zM908.71797 130.987763c27.2398 0 27.336738-42.459189 0-42.45919s-27.336738 42.459189 0 42.45919zM830.973061 533.768429c-35.770413 32.959188-108.86226 26.755106-118.265322-29.081637-3.97449-23.943881 9.693879-52.153068 35.091842-57.387762a37.806128 37.806128 0 0 1 35.285719 10.469389c5.234695 7.367348 5.719389 21.326533-4.556123 22.683676-26.852044 3.683674-15.413267 44.494904 11.341838 40.908169 47.693884-6.39796 47.693884-72.80103 17.545921-98.586748-40.908169-34.801025-101.688789-17.545921-126.020425 27.530616a99.265319 99.265319 0 0 0 38.775515 131.25512 117.392873 117.392873 0 0 0 140.755121-17.448982c20.066329-18.515309-9.693879-48.469394-29.954086-29.954086zM948.268995 563.722515A117.586751 117.586751 0 0 0 1089.024116 581.65619a99.168381 99.168381 0 0 0 38.775516-131.255119c-24.428575-45.173475-85.403073-62.331641-126.020425-27.530616-30.147963 25.785718-30.147963 92.188788 17.54592 98.586748 26.755106 3.586735 38.290821-37.224495 11.341839-40.908169-9.112246-1.163265-9.693879-12.214287-6.107144-19.387758a34.994903 34.994903 0 0 1 32.668372-15.219389c27.336738 2.811225 43.428577 32.959188 38.775515 58.163273-9.693879 56.321436-82.494909 62.42858-118.265322 29.081636-19.96939-18.41837-50.020415 11.438777-29.954086 29.954086zM838.340409 662.406201h69.892867c27.2398 0 27.336738-42.362251 0-42.36225h-69.892867c-27.2398 0-27.336738 42.362251 0 42.36225zM797.044485 738.793967h111.188791c27.2398 0 27.336738-42.362251 0-42.362251H797.044485c-27.336738 0-27.336738 42.362251 0 42.362251zM866.161841 815.181732h42.071435c27.2398 0 27.336738-42.362251 0-42.36225h-42.071435c-27.2398 0-27.336738 42.362251 0 42.36225z" fill="#49494A" p-id="2948"></path></svg>